PathFileType	4	(X/Y/Z)	OpenSim_Sub09_EMGBaseline_Accel.trc
DataRate	CameraRate	NumFrames	NumMarkers	Units	OrigDataRate	OrigDataStartFrame	OrigNumFrames
100	100	13	8	m	100	913	7301
Frame#	Time	torso_imu_offset_imu	pelvis_imu_offset_imu	tibia_r_imu_offset_imu	femur_r_imu_offset_imu	tibia_l_imu_offset_imu	femur_l_imu_offset_imu	toes_r_imu_offset_imu	toes_l_imu_offset_imu
				X1	Y1	Z1	X2	Y2	Z2	X3	Y3	Z3	X4	Y4	Z4	X5	Y5	Z5	X6	Y6	Z6	X7	Y7	Z7	X8		Y8	Z8	

913	9.12000000	10.73684500	0.36196900	7.37393800	12.00326300	-0.20454000	3.57548400	19.15257300	-7.95382400	10.44608000	14.26291800	0.36949900	3.32715700	12.82116200	-1.11561300	1.74253300	10.39299000	4.47921300	-2.02736000	16.15177300	1.25171100	10.95471400	4.99535700	2.70614000	12.17602200
914	9.13000000	10.65159400	0.35616500	7.26560200	12.65628700	1.05638000	4.15042400	18.80614500	-10.23522100	5.06183300	15.66444700	1.09288400	4.20278200	11.98515800	-1.90956100	2.04302200	10.26152000	4.31991300	-1.82863900	12.51905600	3.14133500	12.12118600	5.24072500	2.66973800	12.25516700
915	9.14000000	11.23126000	0.32166200	7.30800400	12.92142800	2.37220200	4.24825500	15.52454900	-5.25787900	3.53871700	16.86755700	1.46833600	4.50036600	11.60263900	-1.26632100	1.74868600	10.25177400	3.83328300	-1.29444300	14.41841200	0.92477700	12.36689700	5.50234100	2.58419200	11.99883300
916	9.15000000	11.73322300	0.14236500	7.48405100	12.48446200	3.25923500	4.22986100	11.58622900	-0.64771300	1.57773300	17.10577300	-0.59058600	3.79639800	11.82778500	-0.27207500	2.09186900	10.28101300	3.24330300	-1.06266100	14.13002000	-1.31025200	10.68889500	5.40393400	2.68461400	11.87357900
917	9.16000000	11.40556300	0.05171300	7.35087400	11.52329100	2.93865500	3.83423600	9.66802700	1.96122100	0.70912300	14.25504400	-4.50405200	0.90154700	11.90408900	-0.47266800	2.15639100	10.30866800	2.68427400	-1.11367000	9.64599400	-2.68217900	8.56941400	5.82020300	2.13326600	11.46754100
918	9.17000000	10.96638000	-0.07517400	7.22175600	10.53915700	1.42067200	3.45622000	8.49544100	3.79416500	-0.75193800	10.21762500	-5.41007700	-2.06138500	11.83385900	-1.19575900	1.44784200	10.28699200	2.17805300	-0.75620500	6.92459000	-4.49193700	8.49530800	5.75998200	2.54687900	11.86279500
919	9.18000000	10.79230300	-0.09392800	6.84816900	9.98923200	-0.45342400	3.35508200	7.99385300	5.94300000	-2.50593600	7.59172600	-4.89846000	-3.02768300	12.22575300	-1.32637800	0.64665300	10.49354000	1.65026100	-0.24223900	15.88303500	-10.12851100	8.41167700	5.47245100	3.01671500	11.72808700
920	9.19000000	10.78416000	-0.11526400	6.37408500	10.10487400	-1.82588400	3.49850600	7.82143200	6.92836300	-4.92326700	6.81029400	-3.34060900	-2.17359900	13.25168000	-0.13670500	0.09773100	10.67638600	0.87128500	-0.08810400	6.03119900	-3.85419700	6.93639600	6.86459000	4.69368500	11.98331100
921	9.20000000	10.80305000	-0.18305800	6.18914400	10.11133000	-2.34482400	3.65887300	7.84099800	7.29114200	-5.15934300	6.73658300	-2.06668800	0.05863600	13.73375200	0.31441100	-0.16431700	10.80726000	0.16448800	0.03068500	6.39299400	-4.59963800	8.16463100	9.90295100	5.47683000	12.70921300
922	9.21000000	10.53411600	-0.39575700	6.12830100	9.92887700	-2.38058700	3.60767400	7.57121200	6.55914700	-4.35885400	7.53562600	-2.10310700	0.70553200	12.96174200	0.14755700	-0.58509700	10.63375200	-0.34189100	0.67119600	9.06858400	-2.45425900	8.09507100	11.53861200	6.27078100	12.92876600
923	9.22000000	9.98275900	-0.59507500	5.90517100	9.99840200	-2.54961100	3.73356100	7.61092200	6.02284700	-2.76966200	8.71263000	-1.23139100	0.74126000	11.41363700	0.52523600	-0.91690600	9.91355000	-0.67349200	1.12182700	10.13486600	-0.40466000	9.48067100	12.83328200	4.90000700	13.28358200
924	9.23000000	9.76835800	-0.78889200	5.66003300	10.22343200	-2.70119100	4.20451600	8.44896000	6.94239100	-0.54609300	9.18088800	0.71649200	0.74197700	10.38815200	-0.05549000	-1.14100400	9.54392100	-1.13079100	0.71623500	6.36983600	-0.84365200	9.28983900	10.49434700	3.46336300	12.51746800
925	9.24000000	9.81886300	-1.04732500	5.59378500	10.36744700	-2.54772700	4.36759300	9.60433400	8.56140700	0.06943600	9.33634000	2.51299300	0.12508100	10.06695100	-1.33238200	-0.78630200	9.57945800	-1.28612600	-0.05094200	6.17168600	-1.21918000	9.11258500	11.49333100	4.53751800	12.89189200
